%
M48
M72
T01C0.0236
T02C0.0394
T03C0.0400
%
T01
X10100Y7100
X11100Y7100
X12100Y7975
X11100Y8975
X10100Y9100
X11100Y10100
X10600Y10600
X12100Y9975
X12100Y12600
X19600Y10100
X19600Y8100
X22725Y11475
X20600Y12600
X25600Y8600
X30100Y4600
X19600Y3600
X22725Y17100
X26100Y19600
X9600Y19600
T02
X2100Y1600
X2100Y2600
X2100Y3600
X2100Y4600
X31100Y4600
X32100Y4600
X32100Y5600
X31100Y5600
X31100Y6600
X32100Y6600
X32100Y7600
X31100Y7600
X31100Y8600
X32100Y8600
X32100Y9600
X31100Y9600
X31100Y10600
X32100Y10600
X32100Y11600
X31100Y11600
X31100Y12600
X32100Y12600
X32100Y13600
X31100Y13600
X31100Y14600
X32100Y14600
X32100Y15600
X31100Y15600
X31100Y16600
X32100Y16600
X32100Y17600
X31100Y17600
T03
X8100Y17100
X8100Y16100
X8100Y14100
X8100Y13100
X8100Y12100
X8100Y11100
X8100Y10100
X8100Y9100
X8100Y8100
X8100Y7100
X2100Y7100
X2100Y8100
X2100Y9100
X2100Y10100
X2100Y11100
X2100Y12100
X2100Y13100
X2100Y14100
X2100Y16100
X2100Y17100
X2100Y18100
X2100Y19100
X2100Y20100
X2100Y21100
X2100Y22100
X2100Y23100
X8100Y23100
X8100Y22100
X8100Y21100
X8100Y20100
X8100Y19100
X8100Y18100
M30
