G75*
G70*
%OFA0B0*%
%FSLAX24Y24*%
%IPPOS*%
%LPD*%
%AMOC8*
5,1,8,0,0,1.08239X$1,22.5*
%
%ADD10OC8,0.0674*%
%ADD11C,0.0820*%
%ADD12R,0.0476X0.0476*%
D10*
X002100Y001600D03*
X002100Y002600D03*
X002100Y003600D03*
X002100Y004600D03*
X031100Y004600D03*
X032100Y004600D03*
X032100Y005600D03*
X031100Y005600D03*
X031100Y006600D03*
X032100Y006600D03*
X032100Y007600D03*
X031100Y007600D03*
X031100Y008600D03*
X032100Y008600D03*
X032100Y009600D03*
X031100Y009600D03*
X031100Y010600D03*
X032100Y010600D03*
X032100Y011600D03*
X031100Y011600D03*
X031100Y012600D03*
X032100Y012600D03*
X032100Y013600D03*
X031100Y013600D03*
X031100Y014600D03*
X032100Y014600D03*
X032100Y015600D03*
X031100Y015600D03*
X031100Y016600D03*
X032100Y016600D03*
X032100Y017600D03*
X031100Y017600D03*
D11*
X008470Y017100D02*
X007730Y017100D01*
X007730Y016100D02*
X008470Y016100D01*
X008470Y014100D02*
X007730Y014100D01*
X007730Y013100D02*
X008470Y013100D01*
X008470Y012100D02*
X007730Y012100D01*
X007730Y011100D02*
X008470Y011100D01*
X008470Y010100D02*
X007730Y010100D01*
X007730Y009100D02*
X008470Y009100D01*
X008470Y008100D02*
X007730Y008100D01*
X007730Y007100D02*
X008470Y007100D01*
X002470Y007100D02*
X001730Y007100D01*
X001730Y008100D02*
X002470Y008100D01*
X002470Y009100D02*
X001730Y009100D01*
X001730Y010100D02*
X002470Y010100D01*
X002470Y011100D02*
X001730Y011100D01*
X001730Y012100D02*
X002470Y012100D01*
X002470Y013100D02*
X001730Y013100D01*
X001730Y014100D02*
X002470Y014100D01*
X002470Y016100D02*
X001730Y016100D01*
X001730Y017100D02*
X002470Y017100D01*
X002470Y018100D02*
X001730Y018100D01*
X001730Y019100D02*
X002470Y019100D01*
X002470Y020100D02*
X001730Y020100D01*
X001730Y021100D02*
X002470Y021100D01*
X002470Y022100D02*
X001730Y022100D01*
X001730Y023100D02*
X002470Y023100D01*
X007730Y023100D02*
X008470Y023100D01*
X008470Y022100D02*
X007730Y022100D01*
X007730Y021100D02*
X008470Y021100D01*
X008470Y020100D02*
X007730Y020100D01*
X007730Y019100D02*
X008470Y019100D01*
X008470Y018100D02*
X007730Y018100D01*
D12*
X009600Y019600D03*
X012100Y012600D03*
X010600Y010600D03*
X011100Y010100D03*
X012100Y009975D03*
X011100Y008975D03*
X010100Y009100D03*
X012100Y007975D03*
X011100Y007100D03*
X010100Y007100D03*
X019600Y008100D03*
X019600Y010100D03*
X022725Y011475D03*
X020600Y012600D03*
X025600Y008600D03*
X030100Y004600D03*
X019600Y003600D03*
X022725Y017100D03*
X026100Y019600D03*
M02*
