G75*
G70*
%OFA0B0*%
%FSLAX24Y24*%
%IPPOS*%
%LPD*%
%AMOC8*
5,1,8,0,0,1.08239X$1,22.5*
%
%ADD10C,0.0000*%
%ADD11R,0.0512X0.0157*%
%ADD12OC8,0.0594*%
%ADD13C,0.0740*%
%ADD14C,0.0160*%
%ADD15R,0.0396X0.0396*%
D10*
X000100Y000100D02*
X000100Y024596D01*
X036970Y024596D01*
X036970Y000100D01*
X000100Y000100D01*
D11*
X014639Y007225D03*
X014639Y007475D03*
X014639Y007725D03*
X014639Y007975D03*
X014639Y008225D03*
X014639Y008475D03*
X014639Y008725D03*
X014639Y008975D03*
X014639Y009225D03*
X014639Y009475D03*
X014639Y009725D03*
X014639Y009975D03*
X014639Y010225D03*
X014639Y010475D03*
X014639Y010725D03*
X014639Y010975D03*
X014639Y011225D03*
X014639Y011475D03*
X014639Y011725D03*
X014639Y011975D03*
X014639Y012225D03*
X014639Y012475D03*
X014639Y012725D03*
X014639Y012975D03*
X018561Y012975D03*
X018561Y012725D03*
X018561Y012475D03*
X018561Y012225D03*
X018561Y011975D03*
X018561Y011725D03*
X018561Y011475D03*
X018561Y011225D03*
X018561Y010975D03*
X018561Y010725D03*
X018561Y010475D03*
X018561Y010225D03*
X018561Y009975D03*
X018561Y009725D03*
X018561Y009475D03*
X018561Y009225D03*
X018561Y008975D03*
X018561Y008725D03*
X018561Y008475D03*
X018561Y008225D03*
X018561Y007975D03*
X018561Y007725D03*
X018561Y007475D03*
X018561Y007225D03*
D12*
X031100Y007600D03*
X032100Y007600D03*
X032100Y006600D03*
X031100Y006600D03*
X031100Y005600D03*
X032100Y005600D03*
X032100Y004600D03*
X031100Y004600D03*
X031100Y008600D03*
X032100Y008600D03*
X032100Y009600D03*
X031100Y009600D03*
X031100Y010600D03*
X032100Y010600D03*
X032100Y011600D03*
X031100Y011600D03*
X031100Y012600D03*
X032100Y012600D03*
X032100Y013600D03*
X031100Y013600D03*
X031100Y014600D03*
X032100Y014600D03*
X032100Y015600D03*
X031100Y015600D03*
X031100Y016600D03*
X032100Y016600D03*
X032100Y017600D03*
X031100Y017600D03*
X002100Y004600D03*
X002100Y003600D03*
X002100Y002600D03*
X002100Y001600D03*
D13*
X002470Y007100D02*
X001730Y007100D01*
X001730Y008100D02*
X002470Y008100D01*
X002470Y009100D02*
X001730Y009100D01*
X001730Y010100D02*
X002470Y010100D01*
X002470Y011100D02*
X001730Y011100D01*
X001730Y012100D02*
X002470Y012100D01*
X002470Y013100D02*
X001730Y013100D01*
X001730Y014100D02*
X002470Y014100D01*
X002470Y016100D02*
X001730Y016100D01*
X001730Y017100D02*
X002470Y017100D01*
X002470Y018100D02*
X001730Y018100D01*
X001730Y019100D02*
X002470Y019100D01*
X002470Y020100D02*
X001730Y020100D01*
X001730Y021100D02*
X002470Y021100D01*
X002470Y022100D02*
X001730Y022100D01*
X001730Y023100D02*
X002470Y023100D01*
X007730Y023100D02*
X008470Y023100D01*
X008470Y022100D02*
X007730Y022100D01*
X007730Y021100D02*
X008470Y021100D01*
X008470Y020100D02*
X007730Y020100D01*
X007730Y019100D02*
X008470Y019100D01*
X008470Y018100D02*
X007730Y018100D01*
X007730Y017100D02*
X008470Y017100D01*
X008470Y016100D02*
X007730Y016100D01*
X007730Y014100D02*
X008470Y014100D01*
X008470Y013100D02*
X007730Y013100D01*
X007730Y012100D02*
X008470Y012100D01*
X008470Y011100D02*
X007730Y011100D01*
X007730Y010100D02*
X008470Y010100D01*
X008470Y009100D02*
X007730Y009100D01*
X007730Y008100D02*
X008470Y008100D01*
X008470Y007100D02*
X007730Y007100D01*
D14*
X008100Y007100D02*
X002100Y007100D01*
X001100Y007100D01*
X001100Y012100D01*
X001100Y016100D01*
X001100Y021100D01*
X002100Y021100D01*
X005100Y022100D02*
X005100Y018100D01*
X008100Y018100D01*
X008100Y017100D02*
X004600Y017100D01*
X004600Y023100D01*
X008100Y023100D01*
X013100Y023100D01*
X013100Y017100D01*
X013100Y013100D01*
X013475Y012725D01*
X014639Y012725D01*
X014639Y012975D02*
X014100Y012975D01*
X014100Y021100D01*
X034100Y021100D01*
X034100Y019100D01*
X034100Y015600D01*
X032100Y015600D01*
X031100Y015600D02*
X030100Y015600D01*
X015600Y015600D01*
X015600Y014600D01*
X019600Y014600D01*
X019600Y013600D01*
X019600Y012475D01*
X018561Y012475D01*
X018561Y012225D02*
X020225Y012225D01*
X020600Y012600D01*
X021475Y011975D02*
X023600Y014100D01*
X024100Y014600D01*
X031100Y014600D01*
X032100Y014600D02*
X034600Y014600D01*
X034600Y002600D01*
X034600Y002100D01*
X014100Y002100D01*
X014100Y007225D01*
X014639Y007225D01*
X014639Y007475D02*
X013475Y007475D01*
X008100Y001600D01*
X002100Y001600D01*
X002100Y002600D02*
X008100Y002600D01*
X012725Y007725D01*
X014639Y007725D01*
X014639Y007975D02*
X012100Y007975D01*
X013100Y008600D02*
X009600Y008600D01*
X009600Y011100D01*
X008100Y011100D01*
X008100Y010100D02*
X005600Y010100D01*
X005600Y012100D01*
X008100Y012100D01*
X009600Y011725D02*
X009600Y014100D01*
X008100Y014100D01*
X004600Y014100D01*
X004600Y008100D01*
X008100Y008100D01*
X008100Y009100D02*
X005100Y009100D01*
X005100Y013100D01*
X008100Y013100D01*
X009600Y011725D02*
X014639Y011725D01*
X014639Y011475D02*
X011100Y011475D01*
X011100Y011100D01*
X009600Y011100D01*
X010600Y010600D02*
X013225Y011225D01*
X014639Y011225D01*
X014639Y010975D02*
X013475Y010975D01*
X012100Y010600D01*
X011100Y010100D01*
X011600Y009600D02*
X010100Y009600D01*
X010100Y009100D01*
X011100Y008975D02*
X014639Y008975D01*
X014639Y008725D02*
X013725Y008725D01*
X013100Y008600D01*
X013100Y009475D02*
X013100Y009600D01*
X013100Y010100D01*
X013182Y010100D01*
X013182Y010381D01*
X012100Y009975D01*
X011600Y009600D02*
X011600Y009225D01*
X014639Y009225D01*
X014639Y009475D02*
X013100Y009475D01*
X013182Y010381D02*
X014100Y010725D01*
X014639Y010725D01*
X014639Y011975D02*
X011725Y011975D01*
X010600Y013600D01*
X010600Y019100D01*
X008100Y019100D01*
X005600Y019100D01*
X005600Y021100D01*
X008100Y021100D01*
X008100Y020100D02*
X009600Y020100D01*
X009600Y019600D01*
X008100Y022100D02*
X012600Y022100D01*
X012600Y013100D01*
X013225Y012475D01*
X014639Y012475D01*
X014639Y012225D02*
X012475Y012225D01*
X012100Y012600D01*
X014600Y013600D02*
X014600Y020600D01*
X033600Y020600D01*
X033600Y016600D01*
X032100Y016600D01*
X031100Y016600D02*
X015100Y016600D01*
X015100Y014600D01*
X015100Y014100D01*
X019100Y014100D01*
X019100Y013600D01*
X019100Y012725D01*
X018561Y012725D01*
X018561Y012975D02*
X018600Y012975D01*
X018600Y013600D01*
X014600Y013600D01*
X018561Y011975D02*
X021475Y011975D01*
X021725Y011725D02*
X023600Y013600D01*
X031100Y013600D01*
X032100Y013600D02*
X034100Y013600D01*
X034100Y003600D01*
X034100Y002600D01*
X019600Y002600D01*
X018561Y003639D01*
X018561Y007225D01*
X018561Y007475D02*
X027475Y007475D01*
X027600Y007600D01*
X031100Y007600D01*
X031100Y008600D02*
X028100Y008600D01*
X027600Y008100D01*
X027225Y007725D01*
X018561Y007725D01*
X018561Y007975D02*
X019475Y007975D01*
X019600Y008100D01*
X018561Y008725D02*
X023475Y008725D01*
X023600Y008600D01*
X025600Y008600D01*
X024100Y009600D02*
X031100Y009600D01*
X031100Y010600D02*
X024100Y010600D01*
X022725Y009225D01*
X018561Y009225D01*
X018561Y008975D02*
X023475Y008975D01*
X024100Y009600D01*
X022600Y010100D02*
X024100Y011600D01*
X031100Y011600D01*
X031100Y012600D02*
X024600Y012600D01*
X022600Y010600D01*
X020600Y010600D01*
X019975Y011225D01*
X018561Y011225D01*
X018561Y010975D02*
X019725Y010975D01*
X020600Y010100D01*
X022600Y010100D01*
X022725Y011475D02*
X018561Y011475D01*
X018561Y011725D02*
X021725Y011725D01*
X019600Y010100D02*
X018975Y010725D01*
X018561Y010725D01*
X019600Y010100D02*
X018975Y009475D01*
X018561Y009475D01*
X011100Y007100D02*
X008100Y003600D01*
X002100Y003600D01*
X002100Y004600D02*
X007600Y004600D01*
X008100Y004600D01*
X010100Y007100D01*
X002100Y012100D02*
X001100Y012100D01*
X002100Y012100D01*
X002100Y016100D02*
X001100Y016100D01*
X002100Y016100D02*
X008100Y016100D01*
X008100Y022100D02*
X005100Y022100D01*
X022600Y020100D02*
X022725Y017100D01*
X026100Y019600D02*
X031100Y019600D01*
X031100Y017600D01*
X032100Y017600D02*
X032100Y020100D01*
X022600Y020100D01*
X030100Y004600D02*
X031100Y004600D01*
X032100Y004600D02*
X033100Y004600D01*
X033600Y004100D01*
X033600Y003600D01*
X019600Y003600D01*
D15*
X019600Y003600D03*
X019600Y008100D03*
X019600Y010100D03*
X022725Y011475D03*
X020600Y012600D03*
X025600Y008600D03*
X030100Y004600D03*
X012100Y007975D03*
X011100Y007100D03*
X010100Y007100D03*
X010100Y009100D03*
X011100Y008975D03*
X011100Y010100D03*
X010600Y010600D03*
X012100Y009975D03*
X012100Y012600D03*
X009600Y019600D03*
X022725Y017100D03*
X026100Y019600D03*
M02*
