G75*
G70*
%OFA0B0*%
%FSLAX24Y24*%
%IPPOS*%
%LPD*%
%AMOC8*
5,1,8,0,0,1.08239X$1,22.5*
%
%ADD10R,0.0512X0.0157*%
D10*
X014639Y007225D03*
X014639Y007475D03*
X014639Y007725D03*
X014639Y007975D03*
X014639Y008225D03*
X014639Y008475D03*
X014639Y008725D03*
X014639Y008975D03*
X014639Y009225D03*
X014639Y009475D03*
X014639Y009725D03*
X014639Y009975D03*
X014639Y010225D03*
X014639Y010475D03*
X014639Y010725D03*
X014639Y010975D03*
X014639Y011225D03*
X014639Y011475D03*
X014639Y011725D03*
X014639Y011975D03*
X014639Y012225D03*
X014639Y012475D03*
X014639Y012725D03*
X014639Y012975D03*
X018561Y012975D03*
X018561Y012725D03*
X018561Y012475D03*
X018561Y012225D03*
X018561Y011975D03*
X018561Y011725D03*
X018561Y011475D03*
X018561Y011225D03*
X018561Y010975D03*
X018561Y010725D03*
X018561Y010475D03*
X018561Y010225D03*
X018561Y009975D03*
X018561Y009725D03*
X018561Y009475D03*
X018561Y009225D03*
X018561Y008975D03*
X018561Y008725D03*
X018561Y008475D03*
X018561Y008225D03*
X018561Y007975D03*
X018561Y007725D03*
X018561Y007475D03*
X018561Y007225D03*
M02*
